<?xml version="1.0" standalone="no"?>
<!DOCTYPE svg PUBLIC "-//W3C//DTD SVG 20010904//EN"
 "http://www.w3.org/TR/2001/REC-SVG-20010904/DTD/svg10.dtd">
<svg version="1.0" xmlns="http://www.w3.org/2000/svg"
 width="600.000000pt" height="108.000000pt" viewBox="0 0 600.000000 108.000000"
 preserveAspectRatio="xMidYMid meet">
<metadata>
Created by potrace 1.15, written by Peter Selinger 2001-2017
</metadata>
<g transform="translate(0.000000,108.000000) scale(0.100000,-0.100000)"
fill="#000000" stroke="none">
<path d="M2660 555 l0 -255 30 0 30 0 0 115 0 114 40 41 c30 31 47 40 72 40
56 0 68 -34 68 -184 l0 -126 35 0 35 0 0 139 c0 155 -8 190 -49 214 -40 24
-118 22 -156 -3 -16 -11 -33 -20 -37 -20 -5 0 -8 41 -8 90 l0 90 -30 0 -30 0
0 -255z"/>
<path d="M800 546 l0 -246 118 0 c122 0 174 13 226 59 24 21 56 95 56 130 0
15 6 33 12 39 10 10 10 17 0 32 -6 11 -12 31 -12 46 0 14 -10 48 -21 75 -17
38 -32 56 -68 77 -42 24 -56 27 -178 30 l-133 4 0 -246z m248 170 c15 -8 41
-29 57 -47 28 -31 30 -37 30 -118 0 -79 -2 -89 -28 -123 -36 -46 -90 -68 -172
-68 l-65 0 0 191 0 192 75 -6 c42 -4 88 -13 103 -21z"/>
<path d="M2320 779 c-44 -18 -90 -59 -112 -102 -18 -34 -23 -59 -23 -127 0
-114 25 -166 104 -218 51 -34 62 -37 124 -37 37 0 71 5 75 11 4 5 21 16 39 23
33 14 66 45 76 73 4 12 -2 23 -19 35 -26 16 -27 16 -57 -19 -39 -44 -65 -58
-109 -58 -45 1 -114 33 -129 61 -7 13 -18 29 -25 36 -20 20 -27 94 -14 142 7
28 27 59 55 87 41 43 45 44 104 44 64 0 90 -14 118 -65 10 -16 16 -18 40 -9
21 8 27 16 25 34 -6 57 -87 100 -183 99 -35 0 -75 -5 -89 -10z"/>
<path d="M1312 653 c-38 -13 -43 -18 -40 -42 4 -32 37 -40 62 -15 10 9 36 19
60 21 38 5 45 2 64 -23 12 -16 26 -34 32 -41 23 -27 10 -33 -58 -27 -123 12
-204 -49 -186 -141 17 -93 141 -125 231 -59 21 15 23 15 30 -2 8 -23 22 -34
45 -34 15 0 16 13 12 133 -6 161 -20 207 -69 230 -44 21 -125 21 -183 0z m166
-189 c16 -5 22 -14 22 -33 0 -20 -10 -33 -42 -54 -57 -37 -97 -36 -132 4 l-28
31 28 29 c24 25 35 29 78 29 28 0 61 -3 74 -6z"/>
<path d="M1640 485 l0 -185 35 0 35 0 0 120 0 121 34 34 c25 27 41 35 68 35
30 0 37 -5 56 -41 19 -35 22 -57 22 -155 l0 -114 30 0 30 0 0 128 c-1 209 -17
242 -119 242 -38 0 -66 -6 -89 -20 -40 -25 -42 -25 -42 0 0 16 -7 20 -30 20
l-30 0 0 -185z"/>
<path d="M3095 655 c-22 -8 -41 -15 -43 -15 -2 0 -2 -12 0 -27 4 -33 29 -41
52 -18 18 19 75 30 108 21 23 -6 58 -55 58 -82 0 -12 -9 -14 -45 -8 -72 10
-129 -3 -169 -40 -30 -27 -36 -39 -36 -75 0 -35 6 -49 35 -79 33 -35 37 -37
100 -37 37 0 69 5 73 11 4 6 17 16 30 23 19 10 22 9 22 -8 0 -14 9 -21 31 -26
17 -4 32 -5 34 -3 2 2 0 70 -4 152 -5 102 -11 151 -19 154 -7 2 -12 10 -12 18
0 46 -130 69 -215 39z m163 -194 c21 -13 10 -62 -19 -83 -14 -11 -44 -22 -67
-25 -34 -5 -44 -2 -66 20 -32 32 -32 42 -1 72 20 21 34 25 82 25 32 0 64 -4
71 -9z"/>
<path d="M3420 485 l0 -185 30 0 30 0 0 111 c0 62 5 119 11 131 20 37 63 67
95 68 50 0 64 -41 64 -189 l0 -121 35 0 35 0 0 118 c0 116 0 118 31 155 23 29
38 37 62 37 51 0 61 -26 67 -175 l5 -130 33 -3 32 -3 0 141 c0 158 -11 203
-55 220 -59 22 -141 6 -174 -34 -12 -14 -16 -12 -41 14 -24 26 -35 30 -82 30
-41 0 -62 -6 -91 -25 l-37 -26 0 26 c0 20 -5 25 -25 25 l-25 0 0 -185z"/>
<path d="M4120 663 c-68 -26 -110 -94 -110 -178 0 -68 18 -115 56 -143 16 -12
36 -27 44 -34 18 -16 148 -18 158 -3 4 6 20 18 35 28 28 18 43 46 67 122 9 29
10 40 1 43 -6 2 -11 16 -11 30 0 42 -41 105 -80 124 -34 16 -128 23 -160 11z
m109 -62 c12 -11 31 -25 42 -33 51 -34 37 -157 -22 -190 -71 -41 -162 0 -174
79 -9 53 -1 76 40 117 51 51 79 58 114 27z"/>
<path d="M4430 485 l0 -185 35 0 35 0 0 116 c0 63 4 124 10 134 11 20 74 60
96 60 9 0 14 11 14 31 0 31 -1 32 -41 26 -23 -3 -52 -15 -65 -28 l-24 -22 0
26 c0 23 -4 27 -30 27 l-30 0 0 -185z"/>
<path d="M4670 485 l0 -185 30 0 30 0 0 116 c0 63 4 123 10 133 5 10 23 24 40
31 16 7 30 16 30 21 0 5 11 9 25 9 21 0 25 5 25 31 0 31 -1 32 -40 26 -21 -3
-53 -15 -70 -27 l-30 -21 0 25 c0 21 -5 26 -25 26 l-25 0 0 -185z"/>
<path d="M4953 654 c-101 -44 -126 -240 -40 -308 17 -15 39 -32 47 -39 20 -16
152 -16 158 1 2 6 10 12 17 12 7 0 27 16 43 35 75 84 43 259 -54 300 -45 18
-128 18 -171 -1z m146 -66 c73 -59 77 -146 10 -203 -75 -62 -189 1 -189 104 0
29 13 52 50 89 51 52 73 53 129 10z"/>
</g>
</svg>
